# xmcd
#
# Track frame offsets:
#	150
#	12212
#	24836
#	38649
#	49930
#	65268
#	79659
#	93134
#	103541
#	116935
#	130710
#	144907
#	159375
#	179954
#	196237
#	214159
#
# Disc length: 3485 seconds
# Revision: 0
# Processed by: cddbd v1.5.2PL0 Copyright (c) Steve Scherf et al.
# Submitted via: dBpowerAMP V12.0
#
DISCID=cf0d9b10
DTITLE=จรัญ มโนเพชร - โฟลค์ซองคำเมือง
DYEAR=1900
DGENRE=Country
TTITLE0=ม่วนขนาด
TTITLE1=พี่สาวครับ
TTITLE2=ลูกข้าวนึ่ง
TTITLE3=ฮานี้บ่าเฮ้ย
TTITLE4=บ้านบนดอย
TTITLE5=สาวมอเตอร์ไซด์
TTITLE6=ของกิ๋นคนเมือง
TTITLE7=ผักกาดจอ
TTITLE8=ลืมอ้ายแล้วกา
TTITLE9=คนสี่ตึง
TTITLE10=สาวเชียงใหม่
TTITLE11=มะเมียะ
TTITLE12=อ้ยคำ
TTITLE13=เสเลมา
TTITLE14=ล่องแม่ปิง
TTITLE15=น้อยใจยา
EXTD=
EXTT0=
EXTT1=
EXTT2=
EXTT3=
EXTT4=
EXTT5=
EXTT6=
EXTT7=
EXTT8=
EXTT9=
EXTT10=
EXTT11=
EXTT12=
EXTT13=
EXTT14=
EXTT15=
PLAYORDER=
